<svg width="184" height="53" viewBox="0 0 184 53" fill="none" xmlns="http://www.w3.org/2000/svg">
<path d="M57.439 52.9942V41.0718H65.0379V43.168H59.7972V46.7055H63.9897V48.8017H59.7972V52.9942H57.439ZM71.7197 41.4648V52.9942H69.3614V44.2162L66.8721 45.7883L65.824 43.9541L69.6234 41.4648H71.7197ZM74.209 41.9889C74.209 42.3819 73.9469 42.644 73.5539 42.644C73.1608 42.644 72.8988 42.3819 72.8988 41.9889C72.8988 41.5958 73.1608 41.3338 73.5539 41.3338C73.8159 41.2028 74.209 41.5958 74.209 41.9889ZM72.8988 41.9889C72.8988 42.2509 73.1608 42.513 73.4229 42.513C73.6849 42.513 73.9469 42.2509 73.9469 41.9889C73.9469 41.7269 73.6849 41.4648 73.4229 41.4648C73.1608 41.3338 72.8988 41.5958 72.8988 41.9889ZM73.4229 42.2509H73.2919V41.5958C73.2919 41.5958 73.4229 41.5958 73.5539 41.5958C73.6849 41.5958 73.6849 41.5958 73.8159 41.5958L73.9469 41.7269C73.9469 41.8579 73.9469 41.8579 73.8159 41.8579C73.9469 41.8579 73.9469 41.9889 73.9469 41.9889C73.9469 42.1199 73.9469 42.1199 73.9469 42.1199H73.8159V41.9889C73.8159 41.8579 73.8159 41.8579 73.6849 41.8579H73.4229V42.2509ZM73.4229 41.8579C73.5539 41.8579 73.6849 41.8579 73.6849 41.7269C73.6849 41.7269 73.6849 41.5958 73.5539 41.5958H73.4229V41.8579ZM79.5806 43.299V41.2028H88.3586V43.299H85.2143V52.9942H82.856V43.299H79.5806ZM90.1929 52.9942V41.0718H97.9228V43.168H92.6822V45.9194H96.8747V48.0156H92.6822V50.8979H97.9228V52.9942H90.1929ZM99.364 52.9942L101.984 41.0718H106.57L109.19 52.9942H106.832L106.308 50.8979H102.246L101.722 52.9942H99.364ZM103.949 43.168L102.77 48.8017H106.046L104.867 43.168H103.949ZM111.286 52.9942V41.0718H115.348L117.444 49.7188L119.54 41.0718H123.602V52.9942H121.244V43.8231H120.982L118.623 52.4701H116.265L114.038 43.8231H113.776V52.9942H111.286Z" fill="white"/>
<path d="M183.869 13.4274H182.297C182.297 13.4274 182.166 13.4274 182.166 13.5585C182.297 15.1306 180.725 16.4408 178.497 17.0959C177.842 10.5451 164.61 15.9167 163.169 22.3365C157.142 25.3499 154.39 22.9916 154.128 22.0745C154.128 22.0745 162.644 19.5852 163.038 15.5237C163.169 12.1173 151.639 14.7376 149.543 22.2055C147.185 23.5156 144.302 23.5156 144.302 22.9916C144.171 21.8124 147.971 18.6681 148.757 16.8338C149.543 14.7376 147.316 14.8686 147.316 14.8686C145.481 15.1306 140.372 16.7028 140.372 16.7028C141.027 12.9034 135.524 15.9167 131.725 16.7028C131.987 14.0825 129.629 14.6066 121.375 16.9649C120.719 10.4141 107.356 15.7857 105.915 22.2055C102.639 23.7777 101.198 23.3846 101.198 22.3365C101.329 20.8953 104.08 18.013 103.032 16.0478C114.955 12.9034 112.99 3.8633 107.225 1.37401C107.88 0.849944 108.535 0.456897 109.059 0.194866C109.059 0.194866 109.19 0.0638503 108.928 0.0638503H106.701C106.57 0.0638503 106.57 0.0638502 106.439 0.194866C106.177 0.325881 105.784 0.587913 105.522 0.849944C86.0003 -4.25966 71.7196 15.2617 85.6073 17.0959L88.4896 14.6066C89.1447 14.0825 88.8827 13.9515 88.3586 13.9515C87.0485 13.9515 86.1314 13.6895 85.6073 13.2964C79.4496 8.84189 91.11 -0.329197 102.77 2.94619C95.6955 8.31783 87.3105 25.3499 79.4496 20.2403C79.1875 20.1092 79.0565 20.2402 78.7945 20.3713C77.3533 21.9435 74.864 23.9087 74.864 23.9087C74.602 24.0397 74.602 24.4328 74.864 24.5638C84.5592 28.8873 90.0618 22.5985 95.4335 15.1306C95.9575 16.1788 97.5297 17.4889 100.15 16.8338C100.15 18.275 95.0404 22.9916 94.7784 23.9087C93.5993 27.5771 101.984 25.4809 105.784 23.7777C108.273 29.1493 118.885 23.6467 120.719 18.7991C125.829 17.0959 124.912 18.9301 124.519 19.5852C121.375 23.5156 119.54 25.3499 119.54 25.7429C119.54 25.8739 119.671 26.0049 119.802 26.0049H123.209C123.733 26.0049 123.995 25.7429 124.388 25.4809C124.65 25.2188 129.104 19.8472 130.022 18.7991C135.524 16.5718 133.166 19.5852 133.166 19.5852C130.022 23.3846 128.187 25.3499 128.187 25.7429C128.187 25.8739 128.318 26.0049 128.449 26.0049H131.856C132.38 26.0049 132.642 25.7429 133.035 25.4809C133.297 25.2188 138.014 19.5852 138.669 18.6681C143.909 16.8338 141.682 19.4542 141.42 19.7162C141.158 20.1092 138.276 23.3846 138.145 23.9087C137.62 26.529 140.503 27.0531 149.412 23.5156C152.032 28.7563 161.858 23.9087 162.906 23.3846C162.906 23.5156 162.906 23.6467 163.038 23.7777C165.527 29.1493 176.139 23.6467 177.973 18.7991C183.214 17.3579 184 13.6895 184 13.5585C184 13.4274 184 13.4274 183.869 13.4274ZM104.474 3.8633C110.238 7.66275 106.046 12.5103 101.984 14.3445C101.198 13.4274 99.4949 12.2483 97.0057 13.1654C99.3639 9.89002 101.722 6.48361 104.474 3.8633ZM96.8746 14.4756C97.9228 13.2964 100.281 14.3445 100.281 15.1306C98.1848 16.0478 96.7436 14.6066 96.8746 14.4756ZM119.409 17.751C116.92 19.0611 117.444 20.7643 117.182 21.0263C114.038 23.7777 111.81 23.6467 111.155 22.8606C109.19 20.6333 116.396 13.6895 119.278 16.1788C119.54 16.4408 119.54 17.0959 119.409 17.751ZM159.893 15.5237C160.286 15.3927 160.417 15.6547 160.286 16.0478C159.369 19.4542 153.735 20.8953 153.735 20.8953C153.735 20.8953 154.39 16.3098 159.893 15.5237ZM176.532 17.882C174.043 18.9301 174.698 20.7643 174.305 21.0263C171.16 23.7777 168.933 23.6467 168.278 22.8606C166.313 20.6333 173.519 13.6895 176.401 16.1788C176.794 16.4408 176.794 17.2269 176.532 17.882ZM74.602 19.9782H72.7678C72.7678 19.9782 72.6368 19.9782 72.6368 20.1092C71.8507 21.5504 69.2304 23.2536 66.61 23.9087C61.7625 25.3499 64.6448 21.4194 64.6448 21.4194C68.9683 16.1788 69.2304 15.7857 69.6234 15.2617C69.7544 15.1306 69.4924 14.9996 69.2304 14.9996H66.086C65.2999 14.9996 64.7758 15.3927 64.3828 15.7857L64.2518 15.6547C62.9416 13.5585 57.832 13.8205 54.0325 16.3098C51.4122 18.013 49.709 20.2403 49.185 22.0745C47.2197 22.0745 45.5165 21.8124 44.0754 21.4194L47.6128 17.0959C55.0807 14.9996 67.2651 3.20822 61.2384 3.33924C56.1288 3.99432 49.316 9.36596 40.5379 19.5852C40.2759 19.3231 38.7037 18.275 37.7866 19.0611C37.2626 19.4542 37.3936 20.3713 38.0486 21.0263C28.8776 24.4327 29.4016 22.5985 30.1877 21.4194C30.8428 20.5023 33.2011 17.0959 33.2011 17.0959C42.3722 14.2135 54.4256 1.63604 46.1716 3.47026C42.6342 4.25635 35.4283 8.71088 25.2091 20.8953C20.4926 23.1226 16.9551 24.4327 20.2305 20.1092C23.6369 15.7857 34.2492 3.8633 34.2492 3.47026C34.2492 3.33924 34.1182 3.20822 33.8561 3.20822H29.5326C28.8776 3.20822 28.3535 3.73229 27.9604 4.12533C25.4712 2.55315 22.1958 3.07721 22.1958 3.07721C10.0113 3.99432 -0.862978 15.5237 0.054131 22.0745C0.316162 23.7777 1.88835 26.136 5.42577 26.136C6.21186 26.136 9.22522 25.7429 12.5006 24.1707C12.5006 24.1707 11.0594 28.3632 23.2439 24.0397C23.2439 24.1707 21.4097 28.6252 37.0005 23.2536C36.8695 23.5156 31.4979 29.4113 28.7465 32.1627C22.4578 38.5824 18.0033 34.3899 17.7412 34.1279H17.6102L16.4311 35.176C16.4311 35.176 16.3001 35.307 16.4311 35.4381C26.5193 42.9059 37.2626 28.8873 42.6342 23.2536C44.3374 23.6467 46.5647 23.7777 49.185 23.3846C49.185 23.9087 49.316 24.3017 49.578 24.6948C50.7572 26.529 54.9497 26.529 58.4871 24.6948C58.4871 24.6948 59.0111 27.3151 66.217 25.6119C69.7544 24.8258 73.6849 22.2055 74.733 20.2403C74.733 20.1092 74.602 19.9782 74.602 19.9782ZM58.4871 5.56651C59.9282 4.6494 59.9282 6.61463 57.832 8.84189C52.8534 14.0825 48.9229 14.8686 48.9229 14.8686C48.9229 14.8686 54.1636 8.18682 58.4871 5.56651ZM44.5994 5.56651C46.0406 4.6494 46.0406 6.61463 43.9443 8.84189C38.9658 14.0825 35.0353 14.8686 35.0353 14.8686C35.0353 14.8686 40.2759 8.18682 44.5994 5.56651ZM8.83217 22.5985C1.36429 21.6814 7.91506 12.6413 15.1209 7.92479C20.2305 4.51838 25.6022 3.60127 25.9952 6.3526C25.8642 7.13869 25.3401 8.18682 24.03 9.62799C22.7198 11.0692 18.6583 15.7857 15.383 19.5852C13.0247 21.8124 10.2733 22.7295 8.83217 22.5985ZM62.8106 17.751C61.7625 19.0611 60.3213 20.7643 59.2732 22.2055C57.1769 23.6467 55.0807 24.0397 54.2946 23.1226C53.3775 22.0745 54.4256 19.5852 56.7839 17.751C59.0111 15.7857 61.6315 15.1306 62.5486 16.1788C62.8106 16.5718 62.9416 17.0959 62.8106 17.751Z" fill="white"/>
</svg>
