<svg width="16" height="16" viewBox="0 0 16 16" fill="none" xmlns="http://www.w3.org/2000/svg">
<g clip-path="url(#clip0_160_31)">
<path d="M13.6889 4.00001V2.84446H12.5333V1.6889H4.5333H3.46663V2.84446H2.31107V4.00001H1.15552V8.53335H2.31107V9.6889H3.46663V10.8445H4.5333V12H5.68885V13.1556H6.84441V14.3111H9.15552V13.1556H10.3111V12H11.4666V10.8445H12.5333V9.6889H13.6889V8.53335H14.8444V4.00001H13.6889Z" fill="#00FF00"/>
<path d="M2.31107 6.3111H1.15552V8.53332H2.31107V6.3111Z" fill="#00FA00"/>
<path d="M3.46659 7.46667H2.31104V9.6889H3.46659V7.46667Z" fill="#00FA00"/>
<path d="M10.3112 12H5.68896V13.1556H10.3112V12Z" fill="#00FA00"/>
<path d="M9.15556 13.1555H8V14.3111H9.15556V13.1555Z" fill="#00FA00"/>
<path d="M8.00004 13.1555H6.84448V14.3111H8.00004V13.1555Z" fill="#00D400"/>
<path d="M7.99989 9.6889H3.46655V10.8445H7.99989V9.6889Z" fill="#00D400"/>
<path d="M3.46663 4H1.15552V5.15556H3.46663V4Z" fill="#00D400"/>
<path d="M6.84456 10.8445H4.53345V12H6.84456V10.8445Z" fill="#00EF00"/>
<path d="M4.53326 2.84445H2.31104V4.00001H4.53326V2.84445Z" fill="#00FA00"/>
<path d="M1.15556 5.15555H0V7.46666H1.15556V5.15555Z" fill="#00FF00"/>
<path d="M16 5.15555H14.8445V7.46666H16V5.15555Z" fill="#00FF00"/>
<path d="M4.53326 6.3111H2.31104V7.46665H4.53326V6.3111Z" fill="#87FF87"/>
<path d="M13.6889 6.3111H8V7.46665H13.6889V6.3111Z" fill="#87FF87"/>
<path d="M14.8445 5.15555H13.689V6.3111H14.8445V5.15555Z" fill="white"/>
<path d="M13.689 4H12.5334V5.15556H13.689V4Z" fill="#87FF87"/>
<path d="M12.5333 2.84445H10.311V4.00001H12.5333V2.84445Z" fill="#87FF87"/>
<path d="M9.15559 10.8445H6.84448V12H9.15559V10.8445Z" fill="#1BFF1B"/>
<path d="M8.00011 4H4.53345V5.15556H8.00011V4Z" fill="#00FA00"/>
<path d="M6.84437 5.15555H2.31104V6.3111H6.84437V5.15555Z" fill="#00EF00"/>
<path d="M10.311 1.6889H3.46655V2.84446H10.311V1.6889Z" fill="#1BFF1B"/>
<path d="M11.4666 7.46667H3.46655V9.6889H11.4666V7.46667Z" fill="#00EF00"/>
<path d="M5.68878 7.46667H3.46655V8.53334H5.68878V7.46667Z" fill="white"/>
<path d="M1.15556 5.15555H0V7.46666H1.15556V5.15555Z" fill="#1BFF1B"/>
<path d="M12.5333 9.6889H10.311V10.8445H12.5333V9.6889Z" fill="#00FA00"/>
<path d="M13.6888 8.53333H11.4666V9.68888H13.6888V8.53333Z" fill="#1BFF1B"/>
<path d="M7.99989 1.6889H3.46655V2.84446H7.99989V1.6889Z" fill="#87FF87"/>
<path d="M13.6888 5.15555H10.311V6.3111H13.6888V5.15555Z" fill="white"/>
<path d="M5.68878 2.84445H3.46655V4.00001H5.68878V2.84445Z" fill="white"/>
<path d="M2.31107 5.15555H1.15552V6.3111H2.31107V5.15555Z" fill="white"/>
<path d="M10.3111 12H8V13.1556H10.3111V12Z" fill="#87FF87"/>
<path d="M14.8443 7.46667H11.4666V8.53334H14.8443V7.46667Z" fill="#00D400"/>
<path d="M11.4667 8.53333H8V9.68888H11.4667V8.53333Z" fill="#00D400"/>
<path d="M8.00011 6.3111H4.53345V7.46665H8.00011V6.3111Z" fill="#00FA00"/>
<path d="M11.4667 1.6889H8V2.84446H11.4667V1.6889Z" fill="white"/>
<path d="M12.5333 2.84445H9.15552V4.00001H12.5333V2.84445Z" fill="white"/>
</g>
<defs>
<clipPath id="clip0_160_31">
<rect width="16" height="16" fill="white"/>
</clipPath>
</defs>
</svg>
