<svg width="12" height="13" viewBox="0 0 12 13" fill="none" xmlns="http://www.w3.org/2000/svg">
<path d="M10.3542 4.23675H8.66437L9.9408 2.90785L8.61847 1.53957C8.26732 1.17535 7.69972 1.17535 7.35187 1.53957L6.0164 2.93082L4.66454 1.52316C4.31344 1.15895 3.74578 1.15895 3.39469 1.52316L2.07562 2.89473L3.36515 4.23675H1.64579C1.15031 4.23675 0.75 4.65348 0.75 5.16863V6.44832C0.75 6.96348 1.15031 7.38019 1.64579 7.38019H4.89094V4.23675H7.10906V7.38019H10.3542C10.8497 7.38019 11.25 6.96348 11.25 6.44832V5.16863C11.25 4.65348 10.8497 4.23675 10.3542 4.23675Z" fill="white"/>
<path d="M2.0625 10.8189C2.0625 11.3341 2.46281 11.7508 2.95829 11.7508H4.89094V8.33502H2.0625V10.8189Z" fill="white"/>
<path d="M7.10913 11.7508H9.04177C9.53729 11.7508 9.93757 11.3341 9.93757 10.8189V8.33832H7.10913V11.7541V11.7508Z" fill="white"/>
</svg>
