<svg width="16" height="17" viewBox="0 0 16 17" fill="none" xmlns="http://www.w3.org/2000/svg">
<path fill-rule="evenodd" clip-rule="evenodd" d="M4.5 9.5C6.985 9.5 9 7.485 9 5C9 2.515 6.985 0.5 4.5 0.5C2.015 0.5 0 2.515 0 5C0 7.485 2.015 9.5 4.5 9.5ZM4.5 2.5C5.88 2.5 7 3.62 7 5C7 6.38 5.88 7.5 4.5 7.5C3.12 7.5 2 6.38 2 5C2 3.62 3.12 2.5 4.5 2.5ZM8 10.5H0V12.5V16.5H2V12.5H8V16.5H16V10.5H10H8ZM16 6.5C16 8.15685 14.6569 9.5 13 9.5C11.3431 9.5 10 8.15685 10 6.5C10 4.84315 11.3431 3.5 13 3.5C14.6569 3.5 16 4.84315 16 6.5Z" fill="white"/>
</svg>
