<svg width="17" height="17" viewBox="0 0 17 17" fill="none" xmlns="http://www.w3.org/2000/svg">
<path d="M16.5 0.984848V2.99229H15.969V6.49681H15.4558V9.50797H14.9425V13.0125H14.4292V15.0199H13.9159V15.5133H12.8894V15.0199H11.3319V14.5096H10.3053V14.0162H8.74779V14.5096H8.23451V15.0199V15.5133H7.72124V16.0066H7.20796V16.5H5.66814V15.5133H5.13717V12.5021H5.66814V12.0088H6.18142V11.5154H6.69469V11.0051H7.20796V10.5117H7.72124V10.0013H8.23451V9.50797H8.74779V8.99761H9.27876V8.50425H9.79204V8.0109H10.3053V7.50053H10.8186V6.99867V6.49681H9.79204V7.00718H9.27876V7.50053H8.75664H8.23451V8.0109H7.72124V8.50425H7.20796V8.99761H6.69469V9.50797H6.18142V10.0013H5.66814V10.5117H5.13717V11.0051H4.62389H4.11062V11.5154H2.5708V11.0051H1.52655V10.5117H0.5V8.50425H1.52655V8.0109H2.5708V7.50053H3.59734V7.00718H4.62389V6.49681H5.13717V6.00346H6.18142V5.49309H7.20796V4.99973H8.23451V4.48937H8.74779V3.99601H9.79204V3.50266H10.8186V2.99229H11.3319V2.49894H12.3584V1.98857H13.4027V1.49522H14.4292V0.984848H14.9425V0.5H15.969V0.984848H16.5Z" fill="#0B0E0F"/>
<path d="M10.3053 7.50053H10.8186V6.99867H10.3053V7.50053Z" fill="#0B0E0F"/>
<path d="M9.79204 8.0109H10.3053V7.50053H9.79204V8.0109Z" fill="#0B0E0F"/>
<path d="M9.27876 8.50425H9.79204V8.0109H9.27876V8.50425Z" fill="#0B0E0F"/>
<path d="M8.74779 8.99761H9.27876V8.50425H8.74779V8.99761Z" fill="#0B0E0F"/>
<path d="M8.23451 9.50797H8.74779V8.99761H8.23451V9.50797Z" fill="#0B0E0F"/>
<path d="M8.23451 7.50053V8.0109H8.75664V7.50053H8.23451Z" fill="#0B0E0F"/>
</svg>
