<svg width="12" height="13" viewBox="0 0 12 13" fill="none" xmlns="http://www.w3.org/2000/svg">
<path d="M6.56241 4.72157L6.99213 5.65019C7.19222 6.08332 7.53991 6.43114 7.97296 6.6313L8.90123 7.05787L7.97296 7.48772C7.53991 7.68788 7.19222 8.03571 6.99213 8.46884L6.56241 9.39741L6.1327 8.46884C5.9326 8.03571 5.58489 7.68788 5.15189 7.48772L4.22357 7.05787L5.15189 6.62801C5.58489 6.42785 5.9326 6.08004 6.1327 5.65019L6.56241 4.72157ZM6.56241 2.37216L5.24046 5.23674C5.13877 5.45659 4.96163 5.63378 4.74185 5.7355L1.87817 7.05787L4.74514 8.38026C4.96492 8.48196 5.14205 8.65911 5.24374 8.87901L6.56569 11.7436L7.88761 8.87901C7.98931 8.65911 8.16646 8.48196 8.38628 8.38026L11.2499 7.05787L8.38628 5.7355C8.16646 5.63378 7.98931 5.45659 7.88761 5.23674L6.56569 2.37216H6.56241Z" fill="white"/>
<path d="M2.7641 1.25L2.19661 2.48377C2.15396 2.57893 2.07851 2.6544 1.98338 2.69706L0.75 3.26472L1.98338 3.83239C2.07851 3.87505 2.15396 3.95052 2.19661 4.04567L2.7641 5.27617L3.33158 4.04239C3.37423 3.94723 3.44967 3.87177 3.5448 3.82911L4.77818 3.26144L3.5448 2.69377C3.44967 2.65112 3.37423 2.57565 3.33158 2.48049L2.7641 1.25Z" fill="white"/>
</svg>
